<svg xmlns="http://www.w3.org/2000/svg" viewBox="0 0 64 64" width="64" height="64" role="img" aria-label="Meteor">
  <defs>
    <radialGradient id="meteorBody" cx="38%" cy="34%" r="72%">
      <stop offset="0%" stop-color="#e7ddff"/>
      <stop offset="38%" stop-color="#9b7dff"/>
      <stop offset="72%" stop-color="#6b4fff"/>
      <stop offset="100%" stop-color="#2f1f7a"/>
    </radialGradient>
    <radialGradient id="meteorCrater" cx="50%" cy="45%" r="55%">
      <stop offset="0%" stop-color="#1c1140" stop-opacity="0.85"/>
      <stop offset="100%" stop-color="#1c1140" stop-opacity="0"/>
    </radialGradient>
  </defs>
  <path fill="url(#meteorBody)" d="M32.4 3.6c6.2-.4 9.1 4 13.7 6.4 5 2.6 11.8 3 14.2 8.9 2.3 5.7-1.9 11.1-3.4 16.8-1.4 5.2.9 11.7-3.1 15.9-4.1 4.3-11 2.3-16.6 3.6-5.4 1.3-10.1 5.6-15.8 4.2-5.8-1.4-7.2-8-11.2-11.9C6.3 43.9-.6 41 3 34.8c2.4-4.1 8.2-4.6 11.3-8.2 3-3.5 3.2-9 7.2-12.1 3.4-2.7 7.1-10.5 10.9-10.9Z"/>
  <circle cx="24" cy="22" r="7.5" fill="url(#meteorCrater)"/>
  <circle cx="41" cy="27" r="5" fill="url(#meteorCrater)"/>
  <circle cx="30" cy="41" r="6" fill="url(#meteorCrater)"/>
  <circle cx="45" cy="42" r="3" fill="url(#meteorCrater)"/>
  <circle cx="16" cy="36" r="2.6" fill="url(#meteorCrater)"/>
  <g fill="#fff">
    <path d="M40 20 l1.6 4.2 4.2 1.6 -4.2 1.6 -1.6 4.2 -1.6-4.2 -4.2-1.6 4.2-1.6Z" opacity="0.95"/>
    <circle cx="20" cy="30" r="1" opacity="0.75"/>
  </g>
</svg>
