<svg xmlns="http://www.w3.org/2000/svg" viewBox="0 0 256 256">
  <defs>
    <radialGradient id="moon" cx="35%" cy="30%">
      <stop offset="0%" stop-color="#f5b8ff"></stop>
      <stop offset="55%" stop-color="#a855f7"></stop>
      <stop offset="100%" stop-color="#5b21b6"></stop>
    </radialGradient>

    <radialGradient id="crater">
      <stop offset="0%" stop-color="#2e1065"></stop>
      <stop offset="100%" stop-color="#5b21b6"></stop>
    </radialGradient>
  </defs>

  <circle cx="128" cy="128" r="110" fill="url(#moon)"></circle>

  <circle cx="75" cy="78" r="24" fill="url(#crater)"></circle>
  <circle cx="182" cy="82" r="20" fill="url(#crater)"></circle>
  <circle cx="175" cy="140" r="28" fill="url(#crater)"></circle>
  <circle cx="85" cy="165" r="26" fill="url(#crater)"></circle>
  <circle cx="148" cy="195" r="22" fill="url(#crater)"></circle>

  <circle cx="120" cy="95" r="7" fill="#8b5cf6"></circle>
  <circle cx="95" cy="210" r="10" fill="#7c3aed"></circle>
  <circle cx="205" cy="180" r="9" fill="#7c3aed"></circle>
  <circle cx="145" cy="60" r="8" fill="#8b5cf6"></circle>

  <g fill="#fff7cc">
    <path d="M34 55l4 10 10 4-10 4-4 10-4-10-10-4 10-4z"></path>
    <path d="M210 38l3 7 7 3-7 3-3 7-3-7-7-3 7-3z"></path>
    <path d="M195 218l3 7 7 3-7 3-3 7-3-7-7-3 7-3z"></path>
  </g>
</svg>